Coordinates
version=1
nRows=30
nColumns=30
inDegrees=yes

Units are S.I. units (second, meters, Newtons, ...)
Angles are in degrees.

endheader
time	floatyaw	floatroll	floatpitch	floatx	floaty	floatz	pro_sup_l	deviation_l	flexion_l	cmc_flexion_l	cmc_abduction_l	mp_flexion_l	ip_flexion_l	2mcp_flexion_l	2mcp_abduction_l	2pm_flexion_l	2md_flexion_l	3mcp_flexion_l	3mcp_abduction_l	3pm_flexion_l	3md_flexion_l	4mcp_flexion_l	4mcp_abduction_l	4pm_flexion_l	4md_flexion_l	5mcp_flexion_l	5mcp_abduction_l	5pm_flexion_l	5md_flexion_l
-0.495000	3.029614	-4.103828	101.268469	-0.103194	-0.207568	-0.046035	87.241995	1.725780	0.562625	16.497116	-1.579497	-22.731874	-35.816791	38.247182	8.176588	50.854942	33.953443	23.830049	4.475438	48.305718	30.209089	14.722424	-4.428422	61.266905	39.885139	9.608297	-9.508195	59.347384	39.715519
-0.485000	3.029614	-4.103828	101.268469	-0.103222	-0.207539	-0.046016	87.291792	1.740377	0.572789	16.491053	-1.676820	-22.725357	-35.819049	38.216061	8.157219	50.822553	33.929568	23.851154	4.461180	48.265628	30.175630	14.716004	-4.435728	61.228797	39.860457	9.522405	-9.432400	59.318735	39.702984
-0.475000	3.029614	-4.103828	101.268469	-0.103245	-0.207504	-0.045990	87.348414	1.753976	0.582714	16.486583	-1.761040	-22.717577	-35.821545	38.176308	8.146651	50.797167	33.911661	23.865758	4.447157	48.237198	30.151492	14.730308	-4.444690	61.204323	39.840659	9.435743	-9.351299	59.288829	39.689775
-0.465000	3.029614	-4.103828	101.268469	-0.103264	-0.207470	-0.045963	87.397520	1.764861	0.590993	16.479231	-1.825582	-22.712289	-35.825418	38.137981	8.144116	50.783134	33.901752	23.862731	4.435990	48.232038	30.144696	14.750906	-4.451721	61.196145	39.828426	9.354229	-9.281277	59.258540	39.676585
-0.455000	3.029614	-4.103828	101.268469	-0.103281	-0.207448	-0.045940	87.429306	1.773740	0.596274	16.464371	-1.874369	-22.710400	-35.829527	38.115954	8.145569	50.782873	33.899321	23.839222	4.429280	48.260044	30.160101	14.763504	-4.454523	61.203100	39.824573	9.283335	-9.233225	59.229992	39.664710
-0.445000	3.029614	-4.103828	101.268469	-0.103295	-0.207436	-0.045926	87.443713	1.783115	0.599580	16.439192	-1.915693	-22.710740	-35.831711	38.123962	8.145770	50.798009	33.902903	23.803507	4.426326	48.325778	30.197487	14.757070	-4.452206	61.223349	39.829877	9.228705	-9.208882	59.206128	39.655512
-0.435000	3.029614	-4.103828	101.268469	-0.103304	-0.207428	-0.045916	87.452347	1.794770	0.606770	16.405430	-1.955218	-22.711879	-35.830719	38.165775	8.140780	50.829577	33.911638	23.773991	4.423839	48.422856	30.249291	14.724676	-4.444932	61.256824	39.846404	9.196459	-9.200625	59.189597	39.649600
-0.425000	3.029614	-4.103828	101.268469	-0.103298	-0.207403	-0.045901	87.475416	1.806225	0.629634	16.371932	-1.992510	-22.713154	-35.827414	38.227051	8.129637	50.875919	33.925317	23.773700	4.416987	48.528993	30.299223	14.663969	-4.433910	61.304852	39.876566	9.191488	-9.194455	59.181396	39.646129
-0.415000	3.029614	-4.103828	101.268469	-0.103265	-0.207333	-0.045863	87.533928	1.808320	0.684815	16.354981	-2.021384	-22.713800	-35.824325	38.273483	8.114444	50.929072	33.942617	23.819987	4.401620	48.607004	30.324541	14.578820	-4.421902	61.366801	39.919770	9.213955	-9.175445	59.179887	39.642569
-0.405000	3.029614	-4.103828	101.268469	-0.103195	-0.207186	-0.045780	87.640247	1.786708	0.790917	16.374224	-2.030916	-22.710765	-35.823530	38.260128	8.099093	50.972797	33.959008	23.911578	4.376949	48.616479	30.304325	14.481840	-4.413601	61.436176	39.968690	9.257024	-9.134459	59.180675	39.635049
-0.395000	3.029614	-4.103828	101.268469	-0.103079	-0.206934	-0.045634	87.792107	1.728496	0.964801	16.443866	-2.004311	-22.697175	-35.823855	38.151599	8.087910	50.986132	33.966684	24.019557	4.347674	48.535543	30.232445	14.395507	-4.414981	61.500559	40.008680	9.310363	-9.074496	59.177694	39.619100
-0.385000	3.029614	-4.103828	101.268469	-0.102910	-0.206552	-0.045412	87.974490	1.631760	1.218107	16.562244	-1.916630	-22.663465	-35.819042	37.944800	8.085512	50.953906	33.958177	24.091624	4.324305	48.383546	30.128863	14.348749	-4.431221	61.548780	40.023114	9.372069	-9.014649	59.165216	39.590360
-0.375000	3.029614	-4.103828	101.268469	-0.102671	-0.206010	-0.045104	88.170191	1.512257	1.554978	16.706270	-1.735695	-22.601536	-35.798446	37.679683	8.097571	50.880556	33.932962	24.074550	4.320582	48.228928	30.040064	14.366907	-4.463678	61.582801	40.003499	9.465363	-8.989094	59.138724	39.544246
-0.365000	3.029614	-4.103828	101.268469	-0.102319	-0.205268	-0.044696	88.375209	1.401604	1.972139	16.837671	-1.429686	-22.509759	-35.750592	37.424675	8.130090	50.798116	33.903220	23.946858	4.347960	48.168621	30.022539	14.457104	-4.507349	61.624188	39.957874	9.649047	-9.038555	59.091184	39.473520
-0.355000	3.029614	-4.103828	101.268469	-0.101779	-0.204268	-0.044156	88.611862	1.335499	2.462167	16.923348	-0.980045	-22.394848	-35.667996	37.235695	8.184692	50.758506	33.893374	23.741174	4.409048	48.279109	30.112560	14.596074	-4.550774	61.704106	39.909250	10.009204	-9.194079	59.003968	39.364302
-0.345000	3.029614	-4.103828	101.268469	-0.100943	-0.202932	-0.043427	88.932375	1.337003	3.018908	16.963466	-0.393262	-22.267532	-35.550487	37.107190	8.250245	50.808219	33.930445	23.537647	4.493183	48.559508	30.296048	14.728745	-4.579268	61.836889	39.881312	10.628145	-9.457892	58.838424	39.193932
-0.335000	3.029614	-4.103828	101.268469	-0.099685	-0.201163	-0.042427	89.408257	1.404244	3.641579	17.012996	0.296262	-22.133278	-35.405403	36.946572	8.295069	50.956995	34.028372	23.428857	4.576672	48.900003	30.496625	14.781100	-4.580108	61.992525	39.878227	11.540786	-9.790303	58.538779	38.935202
-0.325000	3.029614	-4.103828	101.268469	-0.097878	-0.198859	-0.041057	90.105169	1.510990	4.333593	17.181156	1.037416	-21.984447	-35.245593	36.596012	8.266240	51.160406	34.174998	23.476220	4.628401	49.102602	30.593502	14.684216	-4.546847	62.088220	39.871021	12.699443	-10.111245	58.052205	38.568085
-0.315000	3.029614	-4.103828	101.268469	-0.095407	-0.195929	-0.039220	91.048898	1.622242	5.094356	17.601378	1.786527	-21.801072	-35.087353	35.898501	8.101361	51.331409	34.330949	23.681484	4.619627	48.954971	30.465902	14.402018	-4.481032	62.009334	39.800526	13.969466	-10.319299	57.357909	38.092979
-0.305000	3.029614	-4.103828	101.268469	-0.092180	-0.192320	-0.036840	92.194865	1.718914	5.905298	18.379409	2.534729	-21.561748	-34.948538	34.775629	7.752641	51.380018	34.444142	23.985666	4.534924	48.326329	30.045074	13.952622	-4.391728	61.654552	39.598818	15.167763	-10.322796	56.485228	37.534939
-0.295000	3.029614	-4.103828	101.268469	-0.088127	-0.188038	-0.033883	93.418227	1.820915	6.713770	19.541472	3.323212	-21.258073	-34.845013	33.273415	7.213782	51.263316	34.475102	24.293427	4.379809	47.236960	29.348068	13.411475	-4.293638	60.987441	39.221276	16.134036	-10.070980	55.504240	36.932750
-0.285000	3.029614	-4.103828	101.268469	-0.083196	-0.183159	-0.030363	94.538566	1.998671	7.420819	21.008898	4.236097	-20.902737	-34.784838	31.548535	6.533419	51.019222	34.420773	24.509848	4.181153	45.862973	28.475246	12.888060	-4.203446	60.069581	38.673985	16.800775	-9.572381	54.492137	36.318665
-0.275000	3.029614	-4.103828	101.268469	-0.077346	-0.177815	-0.026336	95.377968	2.366835	7.881602	22.615071	5.374589	-20.525675	-34.763377	29.800472	5.803215	50.761985	34.322457	24.571469	3.979624	44.471561	27.572451	12.480470	-4.133959	59.054507	38.021036	17.223064	-8.893918	53.498024	35.703417
-0.265000	3.029614	-4.103828	101.268469	-0.070548	-0.172176	-0.021883	95.829429	3.057912	7.927119	24.159338	6.826490	-20.161129	-34.764575	28.184457	5.124349	50.635524	34.249923	24.458560	3.817206	43.318602	26.777144	12.228601	-4.087779	58.139086	37.365056	17.550263	-8.143438	52.530689	35.077905
-0.255000	3.029614	-4.103828	101.268469	-0.062800	-0.166408	-0.017087	95.900612	4.179036	7.410111	25.473836	8.644240	-19.834206	-34.770811	26.748471	4.570398	50.745262	34.267146	24.189477	3.724496	42.556582	26.173414	12.094431	-4.054267	57.489885	36.806998	17.951560	-7.442339	51.577124	34.430813
-0.245000	3.029614	-4.103828	101.268469	-0.054155	-0.160655	-0.012016	95.708599	5.763864	6.266438	26.474378	10.837351	-19.553862	-34.776764	25.422684	4.165640	51.105169	34.397953	23.808009	3.711674	42.189575	25.772247	11.986798	-4.012748	57.173306	36.401185	18.528597	-6.893582	50.636878	33.769620
-0.235000	3.029614	-4.103828	101.268469	-0.044742	-0.155022	-0.006720	95.428364	7.738816	4.570226	27.175763	13.379303	-19.312022	-34.796339	24.061780	3.886714	51.631130	34.612414	23.371584	3.765410	42.086907	25.519954	11.820845	-3.941317	57.117930	36.126376	19.257709	-6.551752	49.743142	33.128023
-0.225000	3.029614	-4.103828	101.268469	-0.034766	-0.149587	-0.001242	95.222649	9.921864	2.554178	27.667485	16.223979	-19.084136	-34.852560	22.515840	3.682600	52.185841	34.843626	22.939180	3.852813	42.044967	25.327877	11.576932	-3.826861	57.129667	35.890402	19.997757	-6.407505	48.947135	32.549260
-0.215000	3.029614	-4.103828	101.268469	-0.024469	-0.144424	0.004382	95.189220	12.061366	0.573903	28.061568	19.319100	-18.830244	-34.952392	20.696497	3.501272	52.650232	35.026139	22.556288	3.932212	41.872900	25.111459	11.321053	-3.671151	56.963811	35.572042	20.568246	-6.398599	48.270512	32.052267
-0.205000	3.029614	-4.103828	101.268469	-0.014085	-0.139634	0.010110	95.348715	13.905887	-0.980870	28.436181	22.599769	-18.503260	-35.065468	18.614289	3.311760	52.981629	35.134311	22.242519	3.968471	41.471037	24.824735	11.173789	-3.490613	56.432208	35.083272	20.856909	-6.446805	47.664522	31.606606
